<svg width="1512" height="982" viewBox="0 0 1512 982" fill="none" xmlns="http://www.w3.org/2000/svg">
<g clip-path="url(#clip0_2_11889)">
<rect width="1512" height="982" fill="white"/>
<path d="M-200.197 1022.46C-200.197 1022.46 -384.578 632.689 -99.9568 704.056C184.665 775.424 180.991 1308.36 451.032 1324.55C592.993 1333.06 656.988 1176.3 557.941 975.086C458.894 773.87 157.612 614.841 5.89573 488.181C-145.821 361.522 -123.992 298.045 55.5969 238.81C235.186 179.576 357.728 134.416 371.032 254.403C384.337 374.39 236.563 388.57 316.517 509.367C396.471 630.164 583.783 509.367 583.783 509.367C583.783 509.367 792.253 333.225 949.485 424.926C1106.72 516.626 1125.45 605.789 1022.77 668.815C920.09 731.841 810.51 730.108 741.078 793.023" stroke="#F0F8FF" stroke-width="47" stroke-linecap="round"/>
<path d="M1079.05 -321.026C1079.05 -321.026 1402.61 -367.653 1292.16 -177.863C1181.71 11.9264 791.516 -109.125 724.518 82.3875C689.297 183.066 791.231 264.13 959.055 237.269C1126.88 210.408 1305.04 28.0558 1428.92 -53.4234C1552.8 -134.903 1594.91 -105.029 1601.71 37.8874C1608.5 180.804 1616.62 279.376 1525.88 262.332C1435.15 245.289 1454.91 135.368 1349.98 166.3C1245.04 197.232 1295.42 359.405 1295.42 359.405C1295.42 359.405 1382.08 549.162 1282.72 642.393C1183.36 735.624 1114.13 729.353 1088.85 641.161C1063.57 552.969 1087.21 474.18 1055.23 410.037" stroke="#F0F8FF" stroke-width="47" stroke-linecap="round"/>
</g>
<defs>
<clipPath id="clip0_2_11889">
<rect width="1512" height="982" fill="white"/>
</clipPath>
</defs>
</svg>
