<svg width="22" height="22" viewBox="0 0 22 22" fill="none" xmlns="http://www.w3.org/2000/svg">
<path d="M1.8903 11.3191C1.81391 11.1133 1.81391 10.8869 1.8903 10.6811C2.63436 8.87695 3.89736 7.33437 5.51918 6.24891C7.141 5.16345 9.04859 4.58398 11.0001 4.58398C12.9517 4.58398 14.8593 5.16345 16.4811 6.24891C18.1029 7.33437 19.3659 8.87695 20.11 10.6811C20.1864 10.8869 20.1864 11.1133 20.11 11.3191C19.3659 13.1232 18.1029 14.6658 16.4811 15.7513C14.8593 16.8367 12.9517 17.4162 11.0001 17.4162C9.04859 17.4162 7.141 16.8367 5.51918 15.7513C3.89736 14.6658 2.63436 13.1232 1.8903 11.3191Z" stroke="#07B0C8" stroke-width="1.83333" stroke-linecap="round" stroke-linejoin="round"/>
<path d="M11 13.75C12.5188 13.75 13.75 12.5188 13.75 11C13.75 9.48122 12.5188 8.25 11 8.25C9.48122 8.25 8.25 9.48122 8.25 11C8.25 12.5188 9.48122 13.75 11 13.75Z" stroke="#07B0C8" stroke-width="1.83333" stroke-linecap="round" stroke-linejoin="round"/>
</svg>
