<svg width="20" height="20" viewBox="0 0 20 20" fill="none" xmlns="http://www.w3.org/2000/svg">
<g clip-path="url(#clip0_152_1995)">
<path d="M18.1669 8.33334C18.5474 10.2011 18.2762 12.1429 17.3984 13.8348C16.5206 15.5268 15.0893 16.8667 13.3431 17.6311C11.597 18.3955 9.64154 18.5382 7.80293 18.0353C5.96433 17.5325 4.35368 16.4145 3.23958 14.8679C2.12548 13.3212 1.57529 11.4394 1.68074 9.53616C1.78619 7.63295 2.54092 5.82341 3.81906 4.40932C5.0972 2.99522 6.8215 2.06203 8.7044 1.76538C10.5873 1.46874 12.515 1.82656 14.166 2.77917" stroke="#009966" stroke-width="1.66667" stroke-linecap="round" stroke-linejoin="round"/>
<path d="M7.5 9.16666L10 11.6667L18.3333 3.33333" stroke="#009966" stroke-width="1.66667" stroke-linecap="round" stroke-linejoin="round"/>
</g>
<defs>
<clipPath id="clip0_152_1995">
<rect width="20" height="20" fill="white"/>
</clipPath>
</defs>
</svg>
