<svg width="32" height="32" viewBox="0 0 32 32" fill="none" xmlns="http://www.w3.org/2000/svg">
<path d="M14.6667 20H17.3333C18.0406 20 18.7189 19.7191 19.219 19.219C19.719 18.7189 20 18.0406 20 17.3333C20 16.6261 19.719 15.9478 19.219 15.4477C18.7189 14.9476 18.0406 14.6667 17.3333 14.6667H13.3333C12.5333 14.6667 11.8667 14.9333 11.4667 15.4667L4 22.6667" stroke="#FCB82E" stroke-width="2.66667" stroke-linecap="round" stroke-linejoin="round"/>
<path d="M9.33325 28L11.4666 26.1333C11.8666 25.6 12.5333 25.3333 13.3333 25.3333H18.6666C20.1333 25.3333 21.4666 24.8 22.3999 23.7333L28.5333 17.8667C29.0478 17.3804 29.3481 16.7097 29.3681 16.0021C29.3881 15.2945 29.1261 14.6078 28.6399 14.0933C28.1537 13.5788 27.483 13.2785 26.7753 13.2585C26.0677 13.2385 25.3811 13.5004 24.8666 13.9867L19.2666 19.1867" stroke="#FCB82E" stroke-width="2.66667" stroke-linecap="round" stroke-linejoin="round"/>
<path d="M2.66675 21.3333L10.6667 29.3333" stroke="#FCB82E" stroke-width="2.66667" stroke-linecap="round" stroke-linejoin="round"/>
<path d="M21.3332 15.8667C23.4687 15.8667 25.1999 14.1355 25.1999 12C25.1999 9.8645 23.4687 8.13333 21.3332 8.13333C19.1977 8.13333 17.4666 9.8645 17.4666 12C17.4666 14.1355 19.1977 15.8667 21.3332 15.8667Z" stroke="#FCB82E" stroke-width="2.66667" stroke-linecap="round" stroke-linejoin="round"/>
<path d="M8 10.6667C10.2091 10.6667 12 8.87581 12 6.66667C12 4.45753 10.2091 2.66667 8 2.66667C5.79086 2.66667 4 4.45753 4 6.66667C4 8.87581 5.79086 10.6667 8 10.6667Z" stroke="#FCB82E" stroke-width="2.66667" stroke-linecap="round" stroke-linejoin="round"/>
</svg>
