<svg width="16" height="16" viewBox="0 0 16 16" fill="none" xmlns="http://www.w3.org/2000/svg">
<g clip-path="url(#clip0_35_4544)">
<path d="M13.3332 6.66659C13.3332 9.99525 9.6405 13.4619 8.4005 14.5326C8.28499 14.6194 8.14437 14.6664 7.99984 14.6664C7.85531 14.6664 7.71469 14.6194 7.59917 14.5326C6.35917 13.4619 2.6665 9.99525 2.6665 6.66659C2.6665 5.2521 3.22841 3.89554 4.2286 2.89535C5.2288 1.89516 6.58535 1.33325 7.99984 1.33325C9.41433 1.33325 10.7709 1.89516 11.7711 2.89535C12.7713 3.89554 13.3332 5.2521 13.3332 6.66659Z" stroke="white" stroke-opacity="0.35" stroke-width="1.33333" stroke-linecap="round" stroke-linejoin="round"/>
<path d="M8 8.66675C9.10457 8.66675 10 7.77132 10 6.66675C10 5.56218 9.10457 4.66675 8 4.66675C6.89543 4.66675 6 5.56218 6 6.66675C6 7.77132 6.89543 8.66675 8 8.66675Z" stroke="white" stroke-opacity="0.35" stroke-width="1.33333" stroke-linecap="round" stroke-linejoin="round"/>
</g>
<defs>
<clipPath id="clip0_35_4544">
<rect width="16" height="16" fill="white"/>
</clipPath>
</defs>
</svg>
