<svg width="22" height="22" viewBox="0 0 22 22" fill="none" xmlns="http://www.w3.org/2000/svg">
<path d="M17.4167 10.0833H4.58333C3.57081 10.0833 2.75 10.9041 2.75 11.9166V18.3333C2.75 19.3458 3.57081 20.1666 4.58333 20.1666H17.4167C18.4292 20.1666 19.25 19.3458 19.25 18.3333V11.9166C19.25 10.9041 18.4292 10.0833 17.4167 10.0833Z" stroke="#07B0C8" stroke-width="1.83333" stroke-linecap="round" stroke-linejoin="round"/>
<path d="M6.4165 10.0833V6.41659C6.4165 5.20101 6.89939 4.03522 7.75893 3.17568C8.61847 2.31614 9.78426 1.83325 10.9998 1.83325C12.2154 1.83325 13.3812 2.31614 14.2407 3.17568C15.1003 4.03522 15.5832 5.20101 15.5832 6.41659V10.0833" stroke="#07B0C8" stroke-width="1.83333" stroke-linecap="round" stroke-linejoin="round"/>
</svg>
