<svg width="22" height="22" viewBox="0 0 22 22" fill="none" xmlns="http://www.w3.org/2000/svg">
<path d="M14.1873 11.8159L15.576 19.6314C15.5916 19.7234 15.5787 19.818 15.539 19.9025C15.4994 19.987 15.4348 20.0574 15.3541 20.1042C15.2734 20.1511 15.1803 20.1722 15.0873 20.1647C14.9942 20.1571 14.9057 20.1214 14.8335 20.0623L11.5519 17.5992C11.3934 17.4808 11.201 17.4169 11.0032 17.4169C10.8055 17.4169 10.613 17.4808 10.4546 17.5992L7.16743 20.0613C7.09531 20.1204 7.00689 20.1561 6.91397 20.1636C6.82105 20.1711 6.72805 20.1501 6.64737 20.1034C6.5667 20.0567 6.50219 19.9865 6.46244 19.9021C6.4227 19.8178 6.40961 19.7234 6.42493 19.6314L7.81277 11.8159" stroke="#07B0C8" stroke-width="1.83333" stroke-linecap="round" stroke-linejoin="round"/>
<path d="M11 12.8333C14.0376 12.8333 16.5 10.3708 16.5 7.33325C16.5 4.29569 14.0376 1.83325 11 1.83325C7.96243 1.83325 5.5 4.29569 5.5 7.33325C5.5 10.3708 7.96243 12.8333 11 12.8333Z" stroke="#07B0C8" stroke-width="1.83333" stroke-linecap="round" stroke-linejoin="round"/>
</svg>
