<svg width="15" height="15" viewBox="0 0 15 15" fill="none" xmlns="http://www.w3.org/2000/svg">
<path d="M13.9252 10.6135V12.6135C13.926 12.7991 13.888 12.9829 13.8136 13.153C13.7392 13.3232 13.6301 13.4759 13.4933 13.6014C13.3565 13.7269 13.195 13.8225 13.0191 13.882C12.8432 13.9414 12.6568 13.9635 12.4719 13.9468C10.4205 13.7239 8.44991 13.0229 6.71858 11.9001C5.1078 10.8766 3.74214 9.51093 2.71858 7.90015C1.5919 6.16095 0.890744 4.18081 0.671915 2.12015C0.655255 1.93579 0.677165 1.74999 0.736249 1.57456C0.795332 1.39914 0.890296 1.23794 1.01509 1.10123C1.13989 0.964515 1.29178 0.855286 1.46111 0.780494C1.63043 0.705702 1.81348 0.666987 1.99858 0.666813H3.99858C4.32212 0.663628 4.63578 0.778198 4.88109 0.989168C5.1264 1.20014 5.28663 1.49311 5.33192 1.81348C5.41633 2.45352 5.57288 3.08196 5.79858 3.68681C5.88828 3.92543 5.90769 4.18476 5.85452 4.43407C5.80135 4.68338 5.67782 4.91222 5.49858 5.09348L4.65192 5.94015C5.60095 7.60918 6.98288 8.99111 8.65192 9.94015L9.49858 9.09348C9.67984 8.91424 9.90868 8.79071 10.158 8.73754C10.4073 8.68437 10.6666 8.70378 10.9052 8.79348C11.5101 9.01918 12.1385 9.17573 12.7786 9.26015C13.1024 9.30583 13.3982 9.46895 13.6096 9.71848C13.821 9.968 13.9334 10.2865 13.9252 10.6135Z" stroke="white" stroke-opacity="0.35" stroke-width="1.33333" stroke-linecap="round" stroke-linejoin="round"/>
</svg>
