<svg width="22" height="22" viewBox="0 0 22 22" fill="none" xmlns="http://www.w3.org/2000/svg">
<path d="M13.7498 1.83325H5.49984C5.01361 1.83325 4.54729 2.02641 4.20347 2.37022C3.85966 2.71404 3.6665 3.18036 3.6665 3.66659V18.3333C3.6665 18.8195 3.85966 19.2858 4.20347 19.6296C4.54729 19.9734 5.01361 20.1666 5.49984 20.1666H16.4998C16.9861 20.1666 17.4524 19.9734 17.7962 19.6296C18.14 19.2858 18.3332 18.8195 18.3332 18.3333V6.41659L13.7498 1.83325Z" stroke="#07B0C8" stroke-width="1.83333" stroke-linecap="round" stroke-linejoin="round"/>
<path d="M12.8335 1.83325V5.49992C12.8335 5.98615 13.0267 6.45246 13.3705 6.79628C13.7143 7.1401 14.1806 7.33325 14.6668 7.33325H18.3335" stroke="#07B0C8" stroke-width="1.83333" stroke-linecap="round" stroke-linejoin="round"/>
<path d="M9.16683 8.25H7.3335" stroke="#07B0C8" stroke-width="1.83333" stroke-linecap="round" stroke-linejoin="round"/>
<path d="M14.6668 11.9167H7.3335" stroke="#07B0C8" stroke-width="1.83333" stroke-linecap="round" stroke-linejoin="round"/>
<path d="M14.6668 15.5833H7.3335" stroke="#07B0C8" stroke-width="1.83333" stroke-linecap="round" stroke-linejoin="round"/>
</svg>
